<svg width="46" height="16" viewBox="0 0 46 16" fill="none" xmlns="http://www.w3.org/2000/svg">
<path d="M12.32 15H9.52L3.18 5.42V15H0.38V1.02H3.18L9.52 10.62V1.02H12.32V15ZM17.887 1.04V15H15.087V1.04H17.887ZM25.4734 15.14C24.5001 15.14 23.6201 14.9733 22.8334 14.64C22.0601 14.3067 21.4468 13.8267 20.9934 13.2C20.5401 12.5733 20.3068 11.8333 20.2934 10.98H23.2934C23.3334 11.5533 23.5334 12.0067 23.8934 12.34C24.2668 12.6733 24.7734 12.84 25.4134 12.84C26.0668 12.84 26.5801 12.6867 26.9534 12.38C27.3268 12.06 27.5134 11.6467 27.5134 11.14C27.5134 10.7267 27.3868 10.3867 27.1334 10.12C26.8801 9.85333 26.5601 9.64667 26.1734 9.5C25.8001 9.34 25.2801 9.16667 24.6134 8.98C23.7068 8.71333 22.9668 8.45333 22.3934 8.2C21.8334 7.93333 21.3468 7.54 20.9334 7.02C20.5334 6.48667 20.3334 5.78 20.3334 4.9C20.3334 4.07333 20.5401 3.35333 20.9534 2.74C21.3668 2.12667 21.9468 1.66 22.6934 1.34C23.4401 1.00667 24.2934 0.84 25.2534 0.84C26.6934 0.84 27.8601 1.19333 28.7534 1.9C29.6601 2.59333 30.1601 3.56667 30.2534 4.82H27.1734C27.1468 4.34 26.9401 3.94667 26.5534 3.64C26.1801 3.32 25.6801 3.16 25.0534 3.16C24.5068 3.16 24.0668 3.3 23.7334 3.58C23.4134 3.86 23.2534 4.26667 23.2534 4.8C23.2534 5.17333 23.3734 5.48667 23.6134 5.74C23.8668 5.98 24.1734 6.18 24.5334 6.34C24.9068 6.48667 25.4268 6.66 26.0934 6.86C27.0001 7.12667 27.7401 7.39333 28.3134 7.66C28.8868 7.92667 29.3801 8.32667 29.7934 8.86C30.2068 9.39333 30.4134 10.0933 30.4134 10.96C30.4134 11.7067 30.2201 12.4 29.8334 13.04C29.4468 13.68 28.8801 14.1933 28.1334 14.58C27.3868 14.9533 26.5001 15.14 25.4734 15.14ZM41.4009 12.34H35.8409L34.9209 15H31.9809L37.0009 1.02H40.2609L45.2809 15H42.3209L41.4009 12.34ZM40.6409 10.1L38.6209 4.26L36.6009 10.1H40.6409Z" fill="black"/>
</svg>
